<svg width="25" height="24" viewBox="0 0 25 24" fill="none" xmlns="http://www.w3.org/2000/svg">
<path d="M18.5934 9.06757C18.5224 9.10896 16.8337 9.98231 16.8337 11.9187C16.9133 14.1271 18.9648 14.9015 19 14.9015C18.9648 14.9429 18.6903 15.9565 17.8771 17.0191C17.2317 17.9343 16.5153 18.8571 15.4276 18.8571C14.3929 18.8571 14.0215 18.2471 12.8276 18.2471C11.5455 18.2471 11.1827 18.8571 10.201 18.8571C9.11328 18.8571 8.34389 17.8849 7.66332 16.9782C6.77916 15.7916 6.02765 13.9293 6.00112 12.1412C5.98324 11.1937 6.17818 10.2623 6.67304 9.4712C7.37149 8.36674 8.61843 7.61701 9.98015 7.59229C11.0235 7.5595 11.9521 8.25979 12.5888 8.25979C13.199 8.25979 14.3398 7.59229 15.6306 7.59229C16.1877 7.59282 17.6735 7.74922 18.5934 9.06757ZM12.5006 7.40311C12.3148 6.53782 12.8276 5.67253 13.3051 5.12057C13.9153 4.45307 14.8791 4 15.7102 4C15.7633 4.86529 15.427 5.71391 14.826 6.33198C14.2868 6.99948 13.3582 7.50199 12.5006 7.40311Z" fill="white"/>
</svg>
