<svg width="24" height="24" viewBox="0 0 24 24" fill="none" xmlns="http://www.w3.org/2000/svg">
<path fill-rule="evenodd" clip-rule="evenodd" d="M10.5002 2C11.0525 2 11.5002 2.44772 11.5002 3V9.99974L12.8994 8.95006C13.255 8.68336 13.7439 8.68331 14.0994 8.94994L15.5002 10.0003V3C15.5002 2.44772 15.9479 2 16.5002 2C17.0525 2 17.5002 2.44772 17.5002 3V12C17.5002 12.3788 17.2862 12.725 16.9474 12.8944C16.6087 13.0638 16.2033 13.0273 15.9003 12.8001L13.4997 11L11.1003 12.7999C10.7973 13.0272 10.3918 13.0638 10.053 12.8945C9.71421 12.7251 9.50018 12.3788 9.50018 12V3C9.50018 2.44772 9.9479 2 10.5002 2Z" fill="white"/>
<path fill-rule="evenodd" clip-rule="evenodd" d="M4.45215 2.9519C5.06164 2.34241 5.88829 2 6.75024 2H19.5002C20.0525 2 20.5002 2.44772 20.5002 3V18C20.5002 18.5523 20.0525 19 19.5002 19H6.75024C6.41872 19 6.10078 19.1317 5.86636 19.3661C5.63194 19.6005 5.50024 19.9185 5.50024 20.25C5.50024 20.8023 5.05253 21.25 4.50024 21.25C3.94796 21.25 3.50024 20.8023 3.50024 20.25V5.25C3.50024 4.38805 3.84265 3.5614 4.45215 2.9519ZM5.50024 17.25C5.89259 17.0865 6.31696 17 6.75024 17H18.5002V4H6.75024C6.41872 4 6.10078 4.1317 5.86636 4.36612C5.63194 4.60054 5.50024 4.91848 5.50024 5.25V17.25Z" fill="white"/>
<path d="M4.50018 20.25V21H18.0002" stroke="white" stroke-width="2" stroke-linecap="round" stroke-linejoin="round"/>
</svg>
