<svg width="22" height="22" viewBox="0 0 22 22" fill="none" xmlns="http://www.w3.org/2000/svg">
<rect width="22" height="22" rx="11" fill="black" fill-opacity="0.7"/>
<path fill-rule="evenodd" clip-rule="evenodd" d="M15.9714 6.02851C16.2318 6.28886 16.2318 6.71097 15.9714 6.97132L6.97143 15.9713C6.71108 16.2317 6.28897 16.2317 6.02862 15.9713C5.76827 15.711 5.76827 15.2889 6.02862 15.0285L15.0286 6.02851C15.289 5.76816 15.7111 5.76816 15.9714 6.02851Z" fill="white"/>
<path fill-rule="evenodd" clip-rule="evenodd" d="M6.02862 6.02851C6.28897 5.76816 6.71108 5.76816 6.97143 6.02851L15.9714 15.0285C16.2318 15.2889 16.2318 15.711 15.9714 15.9713C15.7111 16.2317 15.289 16.2317 15.0286 15.9713L6.02862 6.97132C5.76827 6.71097 5.76827 6.28886 6.02862 6.02851Z" fill="white"/>
</svg>
