<svg width="22" height="21" viewBox="0 0 22 21" fill="none" xmlns="http://www.w3.org/2000/svg">
<path fill-rule="evenodd" clip-rule="evenodd" d="M4.97999 5.3399H7.20802L8.75602 3.6199L13.244 3.6199L14.792 5.3399H17.02C17.495 5.3399 17.88 5.72494 17.88 6.1999V15.6599C17.88 16.1349 17.495 16.5199 17.02 16.5199H4.97999C4.50503 16.5199 4.11999 16.1349 4.11999 15.6599V6.1999C4.11999 5.72494 4.50503 5.3399 4.97999 5.3399ZM6.44199 3.6199H4.11999C3.17006 3.6199 2.39999 4.38997 2.39999 5.3399V16.5199C2.39999 17.4698 3.17006 18.2399 4.11999 18.2399H17.88C18.8299 18.2399 19.6 17.4698 19.6 16.5199V5.3399C19.6 4.38997 18.8299 3.6199 17.88 3.6199H15.558L14.5224 2.46928C14.1963 2.10686 13.7316 1.8999 13.244 1.8999H8.75602C8.26842 1.8999 7.80374 2.10686 7.47755 2.46928L6.44199 3.6199ZM11 14.7999C13.3748 14.7999 15.3 12.8748 15.3 10.4999C15.3 8.12511 13.3748 6.19993 11 6.19993C8.62517 6.19993 6.69999 8.12511 6.69999 10.4999C6.69999 12.8748 8.62517 14.7999 11 14.7999ZM11 13.0799C12.4249 13.0799 13.58 11.9248 13.58 10.4999C13.58 9.07504 12.4249 7.91993 11 7.91993C9.5751 7.91993 8.41999 9.07504 8.41999 10.4999C8.41999 11.9248 9.5751 13.0799 11 13.0799Z" fill="#111111"/>
</svg>
