<svg width="22" height="22" viewBox="0 0 22 22" fill="none" xmlns="http://www.w3.org/2000/svg">
<path d="M17.4167 16.5V11.9167C17.4167 11.4125 17.8292 11 18.3333 11C18.8375 11 19.25 11.4125 19.25 11.9167V17.4167C19.25 18.425 18.425 19.25 17.4167 19.25H4.58333C3.575 19.25 2.75 18.425 2.75 17.4167V11.9167C2.75 11.4125 3.1625 11 3.66667 11C4.17083 11 4.58333 11.4125 4.58333 11.9167V16.5C4.58333 17.0042 4.99583 17.4167 5.5 17.4167H16.5C17.0042 17.4167 17.4167 17.0042 17.4167 16.5Z" fill="#111111"/>
<path d="M10.0741 10.6976L8.35079 8.97423C7.99329 8.61673 7.41579 8.61673 7.05829 8.97423C6.70079 9.33173 6.70079 9.90923 7.05829 10.2667L10.3491 13.5576C10.7066 13.9151 11.2841 13.9151 11.6416 13.5576L14.9325 10.2667C15.29 9.90922 15.29 9.33173 14.9325 8.97423C14.575 8.61673 13.9975 8.61673 13.64 8.97423L11.9075 10.6976V2.75006C11.9075 2.24589 11.495 1.83339 10.9908 1.83339C10.4866 1.83339 10.0741 2.24589 10.0741 2.75006V10.6976Z" fill="#111111"/>
</svg>
