<svg width="24" height="24" viewBox="0 0 24 24" fill="none" xmlns="http://www.w3.org/2000/svg">
<path d="M11.9999 4.72705C7.58143 4.72705 3.99976 7.52898 3.99976 10.9855C3.99976 13.2354 5.51747 15.2068 7.79487 16.31C7.62743 16.9285 7.18895 18.5497 7.10108 18.8966C6.99291 19.3273 7.26065 19.3215 7.43596 19.2055C7.57355 19.1148 9.6284 17.7327 10.5149 17.136C10.9961 17.2065 11.4922 17.2439 11.9999 17.2439C16.4183 17.2439 20 14.4415 20 10.9855C20 7.52939 16.4183 4.72705 11.9999 4.72705Z" fill="#391B1B"/>
<path d="M8.78048 9.14258H6.44133C6.22126 9.14258 6.04346 9.31893 6.04346 9.53629C6.04346 9.75366 6.22167 9.93001 6.44133 9.93001H7.20184V12.7032C7.20184 12.8041 7.24329 12.9034 7.31623 12.9751C7.38752 13.0465 7.4874 13.0875 7.58977 13.0875H7.67473C7.77669 13.0875 7.87615 13.0465 7.94785 12.9751C8.0208 12.9034 8.06224 12.8045 8.06224 12.7032V9.93001H8.78048C9.00055 9.93001 9.17877 9.75366 9.17877 9.53629C9.17877 9.31893 9.00055 9.14258 8.78048 9.14258Z" fill="#FAE300"/>
<path d="M14.403 12.3465H13.315V9.51426C13.315 9.27803 13.1219 9.08691 12.8836 9.08691C12.6453 9.08691 12.4521 9.27803 12.4521 9.51426V12.5672C12.4521 12.591 12.455 12.6131 12.4588 12.6357C12.4546 12.6578 12.4521 12.6808 12.4521 12.7037C12.4521 12.9014 12.6134 13.0614 12.8131 13.0614H14.403C14.6031 13.0614 14.7639 12.9014 14.7639 12.7037C14.7639 12.5061 14.6027 12.3465 14.403 12.3465Z" fill="#FAE300"/>
<path d="M17.8794 12.4765L16.6671 10.9009L17.7625 9.81651C17.9109 9.6701 17.9109 9.43182 17.7625 9.285C17.6142 9.13818 17.3738 9.13818 17.225 9.285L15.8689 10.6269V9.51426C15.8689 9.27803 15.6758 9.08691 15.4375 9.08691C15.1992 9.08691 15.0056 9.27803 15.0056 9.51426V12.6611C15.0056 12.8973 15.1987 13.0884 15.4375 13.0884C15.6762 13.0884 15.8689 12.8977 15.8689 12.6611V11.6903L16.1155 11.4467L17.2623 12.9359C17.3899 13.1044 17.6324 13.1393 17.8027 13.0117C17.9731 12.885 18.0075 12.6455 17.8794 12.4765Z" fill="#FAE300"/>
<path d="M12.129 12.5788L10.9632 9.42256C10.9632 9.42256 10.9603 9.4201 10.9595 9.41887C10.8849 9.22652 10.6698 9.08667 10.4132 9.08667C10.1285 9.08667 9.89309 9.25892 9.84626 9.48407C9.83838 9.50089 9.83051 9.5177 9.82388 9.53575L8.67751 12.5788C8.60664 12.7786 8.71274 12.9967 8.91375 13.0669C9.11517 13.137 9.33607 13.032 9.40694 12.8327L9.60546 12.2725H11.2011L11.3992 12.8327C11.4701 13.032 11.691 13.137 11.8924 13.0669C12.0938 12.9967 12.1999 12.7786 12.129 12.5788ZM9.85869 11.5568L10.395 10.0427C10.4012 10.0427 10.4062 10.0443 10.4124 10.0443L10.9483 11.5568H9.85911H9.85869Z" fill="#FAE300"/>
</svg>
