<svg width="30" height="30" viewBox="0 0 30 30" fill="none" xmlns="http://www.w3.org/2000/svg">
<path fill-rule="evenodd" clip-rule="evenodd" d="M5 6.24976C5 5.5594 5.55964 4.99976 6.25 4.99976H23.75C24.4404 4.99976 25 5.5594 25 6.24976V15.7321L20.8839 11.616C20.3957 11.1278 19.6043 11.1278 19.1161 11.616L5.81143 24.9207C5.33741 24.743 5 24.2858 5 23.7498V6.24976ZM6.23139 27.4997C6.24267 27.4999 6.25397 27.4999 6.26526 27.4998H23.75C25.8211 27.4998 27.5 25.8208 27.5 23.7498V18.7545C27.5 18.7514 27.5 18.7483 27.5 18.7452V6.24976C27.5 4.17869 25.8211 2.49976 23.75 2.49976H6.25C4.17893 2.49976 2.5 4.17869 2.5 6.24976V23.7498C2.5 25.8146 4.16888 27.4897 6.23139 27.4997ZM25 19.2676V23.7498C25 24.4401 24.4404 24.9998 23.75 24.9998H9.26786L20 14.2676L25 19.2676Z" fill="#222222"/>
<path fill-rule="evenodd" clip-rule="evenodd" d="M10.625 9.99976C10.2798 9.99976 10 10.2796 10 10.6248C10 10.9699 10.2798 11.2498 10.625 11.2498C10.9702 11.2498 11.25 10.9699 11.25 10.6248C11.25 10.2796 10.9702 9.99976 10.625 9.99976ZM7.5 10.6248C7.5 8.89887 8.89911 7.49976 10.625 7.49976C12.3509 7.49976 13.75 8.89887 13.75 10.6248C13.75 12.3506 12.3509 13.7498 10.625 13.7498C8.89911 13.7498 7.5 12.3506 7.5 10.6248Z" fill="#222222"/>
</svg>
