<svg width="22" height="22" viewBox="0 0 22 22" fill="none" xmlns="http://www.w3.org/2000/svg">
<path fill-rule="evenodd" clip-rule="evenodd" d="M15.4167 4.58333C15.4167 3.98502 15.9017 3.5 16.5001 3.5C17.0984 3.5 17.5834 3.98502 17.5834 4.58333C17.5834 5.18164 17.0984 5.66667 16.5001 5.66667C15.9017 5.66667 15.4167 5.18164 15.4167 4.58333ZM16.5001 2C15.0733 2 13.9167 3.1566 13.9167 4.58333C13.9167 4.76193 13.9348 4.93629 13.9693 5.10468L7.14239 9.0058C6.69598 8.63773 6.12385 8.41666 5.50008 8.41666C4.07335 8.41666 2.91675 9.57325 2.91675 11C2.91675 12.4267 4.07335 13.5833 5.50008 13.5833C6.12382 13.5833 6.69594 13.3623 7.14235 12.9942L13.9694 16.8954C13.9348 17.0638 13.9167 17.2381 13.9167 17.4167C13.9167 18.8435 15.0733 20.0001 16.5001 20.0001C17.9268 20.0001 19.0834 18.8435 19.0834 17.4167C19.0834 15.99 17.9268 14.8334 16.5001 14.8334C15.9204 14.8334 15.3854 15.0243 14.9543 15.3467L8.05223 11.4026C8.07276 11.2714 8.08341 11.1369 8.08341 11C8.08341 10.8631 8.07276 10.7286 8.05224 10.5974L14.9543 6.65339C15.3853 6.97576 15.9204 7.16667 16.5001 7.16667C17.9268 7.16667 19.0834 6.01007 19.0834 4.58333C19.0834 3.1566 17.9268 2 16.5001 2ZM15.4167 17.4167C15.4167 16.8184 15.9017 16.3334 16.5001 16.3334C17.0984 16.3334 17.5834 16.8184 17.5834 17.4167C17.5834 18.015 17.0984 18.5001 16.5001 18.5001C15.9017 18.5001 15.4167 18.015 15.4167 17.4167ZM5.50008 9.91666C4.90177 9.91666 4.41675 10.4017 4.41675 11C4.41675 11.5983 4.90177 12.0833 5.50008 12.0833C6.09839 12.0833 6.58341 11.5983 6.58341 11C6.58341 10.4017 6.09839 9.91666 5.50008 9.91666Z" fill="#111111"/>
</svg>
